<?xml version="1.0" standalone="no"?>
<!DOCTYPE svg PUBLIC "-//W3C//DTD SVG 20010904//EN" "http://www.w3.org/TR/2001/REC-SVG-20010904/DTD/svg10.dtd">
<svg xmlns="http://www.w3.org/2000/svg" version="1.0" width="682.000000pt" height="695.000000pt" viewBox="0 0 682.000000 695.000000" preserveAspectRatio="xMidYMid meet">
<metadata>
Created by potrace 1.16, written by Peter Selinger 2001-2019
<meta name="Producer" content="Online-Convert"/></metadata>
<g transform="translate(0.000000,695.000000) scale(0.100000,-0.100000)" fill="#000000" stroke="none">
<path d="M0 3475 l0 -3475 3410 0 3410 0 0 3475 0 3475 -3410 0 -3410 0 0 -3475z m2141 2061 c222 -267 406 -485 409 -485 3 -1 4 217 2 484 l-2 485 357 0 358 0 -2 -1077 -3 -1078 -297 -2 -298 -3 -409 490 c-225 270 -411 490 -413 490 -2 0 -3 -219 -3 -487 l1 -488 -356 -3 -355 -2 0 1080 0 1080 304 0 304 0 403 -484z m3237 212 l-3 -273 -517 -3 -518 -2 0 -125 0 -125 455 0 455 0 0 -260 0 -260 -455 0 -455 0 0 -145 0 -145 540 0 540 0 0 -275 0 -275 -900 0 -900 0 0 1080 0 1080 880 0 880 0 -2 -272z m-539 -2524 c530 -78 911 -443 987 -944 83 -551 -227 -1049 -764 -1229 -308 -103 -675 -91 -978 33 -144 59 -247 129 -369 251 -165 165 -249 320 -295 546 -31 148 -25 378 14 524 114 431 478 744 956 820 118 18 322 18 449 -1z m-2900 -662 c140 -342 258 -619 261 -615 4 4 124 286 265 626 l258 617 360 0 c283 0 358 -3 354 -12 -9 -22 -867 -2050 -889 -2101 l-21 -47 -359 2 -360 3 -454 1073 c-250 590 -454 1075 -454 1078 0 2 177 3 392 2 l393 -3 254 -623z"/>
<path d="M4510 2639 c-231 -45 -398 -297 -375 -569 13 -163 61 -274 156 -365 229 -218 608 -156 747 123 88 177 82 415 -14 593 -91 166 -307 258 -514 218z"/>
</g>
</svg>
