<svg id="svg" version="1.1" xmlns="http://www.w3.org/2000/svg" xmlns:xlink="http://www.w3.org/1999/xlink" width="400" height="400" viewBox="0, 0, 400,400"><g id="svgg"><path id="path0" d="M85.385 85.700 C 85.281 85.975,85.241 138.310,85.298 202.000 L 85.400 317.800 123.400 317.800 L 161.400 317.800 161.501 265.100 C 161.561 233.929,161.751 212.400,161.966 212.400 C 162.165 212.400,163.491 213.795,164.911 215.500 C 166.332 217.205,167.833 218.990,168.247 219.466 C 169.349 220.734,170.047 221.590,171.606 223.584 C 172.372 224.566,173.360 225.745,173.800 226.205 C 174.240 226.665,175.230 227.818,176.000 228.766 C 176.770 229.714,178.930 232.328,180.800 234.576 C 182.670 236.823,184.920 239.543,185.800 240.621 C 187.316 242.478,189.960 245.566,190.405 246.000 C 190.519 246.110,191.419 247.188,192.405 248.396 C 193.392 249.604,194.588 251.044,195.061 251.596 C 195.953 252.635,199.781 257.262,202.337 260.391 C 203.142 261.376,204.357 262.816,205.037 263.591 C 205.717 264.366,206.617 265.429,207.037 265.952 C 208.044 267.209,210.167 269.751,212.446 272.430 C 213.461 273.624,215.776 276.400,217.589 278.600 C 219.403 280.800,221.272 283.050,221.743 283.601 C 223.973 286.206,238.618 303.745,240.280 305.800 C 240.635 306.240,241.483 307.234,242.163 308.009 C 242.843 308.784,244.058 310.224,244.863 311.209 C 245.667 312.194,247.258 314.126,248.399 315.502 L 250.473 318.005 282.537 317.902 L 314.600 317.800 314.600 201.600 L 314.600 85.400 276.600 85.400 L 238.600 85.400 238.501 137.600 C 238.447 166.310,238.308 190.051,238.191 190.358 C 238.044 190.749,237.653 190.493,236.890 189.507 C 235.751 188.033,224.132 174.132,223.387 173.351 C 223.151 173.103,222.338 172.137,221.579 171.204 C 220.821 170.270,220.014 169.302,219.788 169.053 C 219.561 168.804,217.872 166.800,216.035 164.600 C 214.198 162.400,212.313 160.148,211.847 159.596 C 211.381 159.044,210.190 157.604,209.200 156.396 C 208.211 155.188,206.830 153.570,206.133 152.800 C 205.436 152.030,204.456 150.860,203.956 150.200 C 203.456 149.540,202.406 148.269,201.623 147.376 C 200.840 146.483,199.840 145.310,199.400 144.770 C 196.556 141.279,194.983 139.374,194.800 139.200 C 194.684 139.090,193.781 138.012,192.795 136.804 C 191.111 134.744,189.522 132.866,188.598 131.844 C 188.377 131.600,187.387 130.413,186.398 129.206 C 184.038 126.327,183.089 125.191,182.590 124.647 C 182.364 124.401,180.564 122.242,178.590 119.848 C 176.615 117.455,174.550 115.003,174.000 114.399 C 173.450 113.796,172.460 112.616,171.800 111.777 C 171.140 110.937,169.430 108.888,168.000 107.224 C 166.570 105.559,164.680 103.300,163.800 102.205 C 162.920 101.109,161.840 99.828,161.400 99.359 C 160.960 98.890,160.033 97.807,159.340 96.953 C 158.646 96.099,157.746 95.010,157.340 94.534 C 156.933 94.057,156.328 93.337,155.997 92.934 C 155.665 92.530,154.081 90.625,152.477 88.700 L 149.560 85.200 117.568 85.200 C 92.341 85.200,85.535 85.306,85.385 85.700 " stroke="none" fill="#fbf4ec" fill-rule="evenodd"></path><path id="path1" d="M0.000 200.000 L 0.000 400.000 200.000 400.000 L 400.000 400.000 400.000 200.000 L 400.000 0.000 200.000 0.000 L 0.000 0.000 0.000 200.000 M152.187 87.000 C 153.606 88.540,154.775 89.920,154.784 90.066 C 154.793 90.212,155.521 91.112,156.401 92.066 C 157.282 93.020,158.767 94.833,159.701 96.096 C 160.636 97.359,161.625 98.394,161.900 98.396 C 162.175 98.398,162.400 98.573,162.400 98.784 C 162.400 98.994,163.435 100.410,164.700 101.930 C 165.965 103.450,167.540 105.379,168.200 106.217 C 168.860 107.055,170.120 108.545,171.000 109.527 C 171.880 110.509,172.840 111.654,173.133 112.072 C 173.426 112.489,174.056 113.242,174.533 113.745 C 175.010 114.248,175.743 115.097,176.163 115.630 C 176.583 116.164,177.544 117.320,178.298 118.200 C 183.713 124.518,185.784 127.012,188.008 129.900 C 188.897 131.055,189.795 132.000,190.002 132.000 C 190.210 132.000,190.667 132.555,191.018 133.234 C 191.369 133.913,192.542 135.398,193.624 136.534 C 194.706 137.670,195.594 138.756,195.596 138.946 C 195.598 139.136,196.210 139.856,196.956 140.546 C 197.702 141.236,198.984 142.700,199.804 143.800 C 200.624 144.900,201.679 146.174,202.148 146.631 C 202.616 147.089,204.080 148.865,205.400 150.578 C 206.720 152.292,208.565 154.484,209.500 155.449 C 210.435 156.415,211.200 157.360,211.200 157.550 C 211.200 157.739,211.987 158.683,212.950 159.647 C 213.912 160.611,215.380 162.300,216.212 163.400 C 217.045 164.500,217.854 165.490,218.010 165.600 C 218.167 165.710,219.231 166.970,220.375 168.399 C 221.518 169.829,222.712 171.143,223.027 171.319 C 223.342 171.495,223.600 171.919,223.600 172.260 C 223.600 172.600,224.377 173.626,225.327 174.540 C 226.276 175.453,227.568 176.889,228.198 177.732 C 228.828 178.574,229.896 179.849,230.572 180.566 C 231.247 181.282,232.790 183.083,234.000 184.568 C 235.210 186.053,236.605 187.747,237.100 188.334 L 237.999 189.400 238.000 136.932 L 238.000 84.464 239.100 84.267 C 241.412 83.853,314.753 84.193,315.180 84.620 C 315.629 85.069,315.835 317.696,315.387 318.420 C 315.243 318.655,302.708 318.800,282.625 318.800 L 250.096 318.800 248.696 317.100 C 247.925 316.165,246.779 314.846,246.148 314.170 C 245.516 313.493,244.730 312.528,244.400 312.026 C 244.070 311.523,243.280 310.546,242.645 309.856 C 242.010 309.165,241.020 307.975,240.445 307.211 C 239.870 306.446,238.860 305.255,238.200 304.564 C 237.540 303.872,236.010 302.099,234.800 300.622 C 233.590 299.146,231.867 297.082,230.972 296.037 C 230.077 294.991,228.817 293.444,228.172 292.599 C 227.527 291.753,226.550 290.588,226.000 290.010 C 225.450 289.431,224.661 288.474,224.246 287.882 C 223.832 287.291,223.022 286.294,222.446 285.667 C 221.871 285.040,221.057 284.093,220.637 283.564 C 220.217 283.034,219.317 281.953,218.637 281.163 C 217.957 280.372,217.057 279.292,216.637 278.763 C 216.217 278.233,215.317 277.159,214.637 276.375 C 213.957 275.591,212.860 274.262,212.200 273.421 C 211.540 272.581,210.595 271.525,210.100 271.075 C 209.605 270.624,209.200 270.058,209.200 269.816 C 209.200 269.574,208.840 269.117,208.400 268.800 C 207.960 268.483,207.600 267.993,207.600 267.712 C 207.600 267.430,207.354 267.200,207.053 267.200 C 206.752 267.200,206.025 266.472,205.436 265.583 C 204.848 264.694,203.744 263.306,202.983 262.500 C 202.222 261.693,201.600 260.905,201.600 260.747 C 201.600 260.590,200.913 259.773,200.073 258.931 C 199.233 258.089,197.036 255.510,195.191 253.200 C 193.347 250.890,191.554 248.730,191.207 248.400 C 190.861 248.070,189.956 246.990,189.196 246.000 C 188.436 245.010,187.228 243.570,186.511 242.800 C 185.794 242.030,185.205 241.284,185.203 241.142 C 185.202 241.000,184.371 240.010,183.359 238.942 C 182.346 237.874,180.965 236.235,180.291 235.300 C 179.616 234.365,178.920 233.600,178.742 233.600 C 178.565 233.600,178.163 233.105,177.849 232.500 C 177.534 231.895,176.450 230.526,175.439 229.458 C 174.427 228.390,173.600 227.366,173.600 227.182 C 173.600 226.998,172.835 226.040,171.900 225.055 C 169.222 222.231,166.375 218.978,165.657 217.922 C 164.477 216.185,162.607 214.000,162.300 214.000 C 162.135 214.000,162.000 237.580,162.000 266.400 L 162.000 318.800 123.424 318.800 C 99.208 318.800,84.759 318.657,84.610 318.416 C 84.255 317.842,84.340 85.097,84.695 84.764 C 85.304 84.192,87.103 84.161,118.104 84.180 L 149.607 84.200 152.187 87.000 " stroke="none" fill="#132323" fill-rule="evenodd"></path><path id="path2" d="" stroke="none" fill="#545854" fill-rule="evenodd"></path><path id="path3" d="" stroke="none" fill="#4c5454" fill-rule="evenodd"></path><path id="path4" d="M147.700 85.076 C 148.085 85.176,148.715 85.176,149.100 85.076 C 149.485 84.975,149.170 84.893,148.400 84.893 C 147.630 84.893,147.315 84.975,147.700 85.076 M314.997 200.800 C 314.997 263.830,315.043 289.615,315.100 258.100 C 315.156 226.585,315.156 175.015,315.100 143.500 C 315.043 111.985,314.997 137.770,314.997 200.800 M84.893 96.800 C 84.893 97.570,84.975 97.885,85.076 97.500 C 85.176 97.115,85.176 96.485,85.076 96.100 C 84.975 95.715,84.893 96.030,84.893 96.800 M84.893 103.200 C 84.893 103.970,84.975 104.285,85.076 103.900 C 85.176 103.515,85.176 102.885,85.076 102.500 C 84.975 102.115,84.893 102.430,84.893 103.200 M84.893 115.600 C 84.893 116.370,84.975 116.685,85.076 116.300 C 85.176 115.915,85.176 115.285,85.076 114.900 C 84.975 114.515,84.893 114.830,84.893 115.600 M84.893 134.400 C 84.893 135.170,84.975 135.485,85.076 135.100 C 85.176 134.715,85.176 134.085,85.076 133.700 C 84.975 133.315,84.893 133.630,84.893 134.400 M84.893 146.800 C 84.893 147.570,84.975 147.885,85.076 147.500 C 85.176 147.115,85.176 146.485,85.076 146.100 C 84.975 145.715,84.893 146.030,84.893 146.800 M84.893 153.200 C 84.893 153.970,84.975 154.285,85.076 153.900 C 85.176 153.515,85.176 152.885,85.076 152.500 C 84.975 152.115,84.893 152.430,84.893 153.200 M84.893 165.600 C 84.893 166.370,84.975 166.685,85.076 166.300 C 85.176 165.915,85.176 165.285,85.076 164.900 C 84.975 164.515,84.893 164.830,84.893 165.600 M84.893 184.400 C 84.893 185.170,84.975 185.485,85.076 185.100 C 85.176 184.715,85.176 184.085,85.076 183.700 C 84.975 183.315,84.893 183.630,84.893 184.400 M84.942 190.600 C 84.941 192.580,85.008 193.440,85.092 192.512 C 85.176 191.584,85.177 189.964,85.095 188.912 C 85.012 187.860,84.943 188.620,84.942 190.600 M84.893 196.800 C 84.893 197.570,84.975 197.885,85.076 197.500 C 85.176 197.115,85.176 196.485,85.076 196.100 C 84.975 195.715,84.893 196.030,84.893 196.800 M84.893 203.200 C 84.893 203.970,84.975 204.285,85.076 203.900 C 85.176 203.515,85.176 202.885,85.076 202.500 C 84.975 202.115,84.893 202.430,84.893 203.200 M84.940 215.600 C 84.940 217.470,85.009 218.235,85.093 217.300 C 85.177 216.365,85.177 214.835,85.093 213.900 C 85.009 212.965,84.940 213.730,84.940 215.600 M84.893 234.400 C 84.893 235.170,84.975 235.485,85.076 235.100 C 85.176 234.715,85.176 234.085,85.076 233.700 C 84.975 233.315,84.893 233.630,84.893 234.400 M84.893 246.800 C 84.893 247.570,84.975 247.885,85.076 247.500 C 85.176 247.115,85.176 246.485,85.076 246.100 C 84.975 245.715,84.893 246.030,84.893 246.800 M84.893 253.200 C 84.893 253.970,84.975 254.285,85.076 253.900 C 85.176 253.515,85.176 252.885,85.076 252.500 C 84.975 252.115,84.893 252.430,84.893 253.200 M84.893 265.600 C 84.893 266.370,84.975 266.685,85.076 266.300 C 85.176 265.915,85.176 265.285,85.076 264.900 C 84.975 264.515,84.893 264.830,84.893 265.600 M84.893 284.400 C 84.893 285.170,84.975 285.485,85.076 285.100 C 85.176 284.715,85.176 284.085,85.076 283.700 C 84.975 283.315,84.893 283.630,84.893 284.400 M84.893 296.800 C 84.893 297.570,84.975 297.885,85.076 297.500 C 85.176 297.115,85.176 296.485,85.076 296.100 C 84.975 295.715,84.893 296.030,84.893 296.800 M84.893 303.200 C 84.893 303.970,84.975 304.285,85.076 303.900 C 85.176 303.515,85.176 302.885,85.076 302.500 C 84.975 302.115,84.893 302.430,84.893 303.200 M84.901 316.200 C 84.905 317.080,84.987 317.393,85.083 316.895 C 85.179 316.398,85.175 315.678,85.075 315.295 C 84.975 314.913,84.896 315.320,84.901 316.200 " stroke="none" fill="#7c7c7c" fill-rule="evenodd"></path><path id="path5" d="M102.530 85.100 C 110.851 85.160,124.351 85.160,132.530 85.100 C 140.708 85.039,133.900 84.990,117.400 84.990 C 100.900 84.990,94.208 85.039,102.530 85.100 M260.900 85.100 C 270.525 85.160,286.275 85.160,295.900 85.100 C 305.525 85.040,297.650 84.991,278.400 84.991 C 259.150 84.991,251.275 85.040,260.900 85.100 M154.229 90.838 C 154.873 91.629,155.481 92.208,155.579 92.125 C 155.678 92.042,155.151 91.395,154.409 90.687 L 153.058 89.400 154.229 90.838 M84.920 93.600 C 84.920 94.810,84.995 95.305,85.087 94.700 C 85.178 94.095,85.178 93.105,85.087 92.500 C 84.995 91.895,84.920 92.390,84.920 93.600 M157.613 94.694 C 157.630 95.107,159.602 97.331,159.787 97.146 C 159.868 97.065,159.409 96.412,158.767 95.693 C 158.125 94.975,157.606 94.525,157.613 94.694 M84.920 100.000 C 84.920 101.210,84.995 101.705,85.087 101.100 C 85.178 100.495,85.178 99.505,85.087 98.900 C 84.995 98.295,84.920 98.790,84.920 100.000 M163.596 101.994 C 164.290 102.871,165.067 103.718,165.323 103.876 C 165.578 104.034,165.093 103.316,164.245 102.281 C 163.397 101.247,162.620 100.400,162.518 100.400 C 162.416 100.400,162.901 101.118,163.596 101.994 M84.920 106.400 C 84.920 107.610,84.995 108.105,85.087 107.500 C 85.178 106.895,85.178 105.905,85.087 105.300 C 84.995 104.695,84.920 105.190,84.920 106.400 M167.349 106.516 C 168.420 107.772,169.382 108.800,169.486 108.800 C 169.754 108.800,166.423 104.861,165.864 104.517 C 165.609 104.361,166.277 105.260,167.349 106.516 M171.081 110.987 C 171.477 111.531,171.966 111.981,172.170 111.987 C 172.373 111.994,172.117 111.550,171.600 111.000 C 170.401 109.723,170.157 109.718,171.081 110.987 M84.920 112.400 C 84.920 113.610,84.995 114.105,85.087 113.500 C 85.178 112.895,85.178 111.905,85.087 111.300 C 84.995 110.695,84.920 111.190,84.920 112.400 M172.812 112.998 C 173.750 114.272,174.400 114.886,174.400 114.498 C 174.400 114.301,173.910 113.703,173.312 113.170 C 172.514 112.458,172.381 112.413,172.812 112.998 M84.920 118.800 C 84.920 120.010,84.995 120.505,85.087 119.900 C 85.178 119.295,85.178 118.305,85.087 117.700 C 84.995 117.095,84.920 117.590,84.920 118.800 M177.999 119.199 C 178.919 120.298,179.881 121.326,180.136 121.483 C 180.391 121.639,179.723 120.740,178.651 119.484 C 177.580 118.228,176.618 117.200,176.514 117.200 C 176.410 117.200,177.079 118.099,177.999 119.199 M84.924 125.000 C 84.926 126.320,85.001 126.812,85.090 126.093 C 85.179 125.374,85.177 124.294,85.086 123.693 C 84.995 123.092,84.922 123.680,84.924 125.000 M184.800 126.993 C 184.800 127.441,188.186 131.555,188.575 131.578 C 188.781 131.590,188.499 131.105,187.948 130.500 C 187.397 129.895,186.463 128.801,185.873 128.069 C 185.283 127.337,184.800 126.853,184.800 126.993 M84.920 131.200 C 84.920 132.410,84.995 132.905,85.087 132.300 C 85.178 131.695,85.178 130.705,85.087 130.100 C 84.995 129.495,84.920 129.990,84.920 131.200 M189.634 133.047 C 190.165 133.733,190.680 134.223,190.779 134.135 C 190.877 134.047,190.443 133.486,189.813 132.888 L 188.669 131.800 189.634 133.047 M84.920 137.600 C 84.920 138.810,84.995 139.305,85.087 138.700 C 85.178 138.095,85.178 137.105,85.087 136.500 C 84.995 135.895,84.920 136.390,84.920 137.600 M193.634 137.847 C 194.165 138.533,194.680 139.023,194.779 138.935 C 194.877 138.847,194.443 138.286,193.813 137.688 L 192.669 136.600 193.634 137.847 M84.920 143.600 C 84.920 144.810,84.995 145.305,85.087 144.700 C 85.178 144.095,85.178 143.105,85.087 142.500 C 84.995 141.895,84.920 142.390,84.920 143.600 M200.329 145.910 C 201.060 146.833,201.870 147.720,202.129 147.879 C 202.388 148.039,202.002 147.414,201.271 146.490 C 200.540 145.567,199.730 144.680,199.471 144.521 C 199.212 144.361,199.598 144.986,200.329 145.910 M84.920 150.000 C 84.920 151.210,84.995 151.705,85.087 151.100 C 85.178 150.495,85.178 149.505,85.087 148.900 C 84.995 148.295,84.920 148.790,84.920 150.000 M203.817 149.978 C 204.576 151.109,207.200 154.008,207.187 153.701 C 207.180 153.536,206.325 152.490,205.287 151.378 C 204.249 150.266,203.588 149.636,203.817 149.978 M84.920 156.400 C 84.920 157.610,84.995 158.105,85.087 157.500 C 85.178 156.895,85.178 155.905,85.087 155.300 C 84.995 154.695,84.920 155.190,84.920 156.400 M210.001 157.400 C 210.551 158.060,211.045 158.675,211.100 158.767 C 211.155 158.858,211.288 158.845,211.396 158.738 C 211.504 158.630,211.009 158.015,210.297 157.371 L 209.003 156.200 210.001 157.400 M84.920 162.400 C 84.920 163.610,84.995 164.105,85.087 163.500 C 85.178 162.895,85.178 161.905,85.087 161.300 C 84.995 160.695,84.920 161.190,84.920 162.400 M214.736 163.117 C 215.691 164.261,216.681 165.325,216.936 165.480 C 217.191 165.636,216.619 164.827,215.664 163.683 C 214.709 162.539,213.719 161.475,213.464 161.320 C 213.209 161.164,213.781 161.973,214.736 163.117 M218.229 167.238 C 218.873 168.029,219.481 168.608,219.579 168.525 C 219.678 168.442,219.151 167.795,218.409 167.087 L 217.058 165.800 218.229 167.238 M84.920 168.800 C 84.920 170.010,84.995 170.505,85.087 169.900 C 85.178 169.295,85.178 168.305,85.087 167.700 C 84.995 167.095,84.920 167.590,84.920 168.800 M220.454 169.800 C 220.754 170.240,221.093 170.690,221.206 170.800 C 221.320 170.910,221.905 171.599,222.506 172.331 C 223.108 173.063,223.596 173.513,223.592 173.331 C 223.587 173.149,222.756 172.100,221.745 171.000 C 220.734 169.900,220.153 169.360,220.454 169.800 M84.924 175.000 C 84.926 176.320,85.001 176.812,85.090 176.093 C 85.179 175.374,85.177 174.294,85.086 173.693 C 84.995 173.092,84.922 173.680,84.924 175.000 M224.004 173.869 C 224.007 174.051,224.862 175.111,225.904 176.224 C 226.947 177.338,227.428 177.788,226.973 177.224 C 226.518 176.661,225.663 175.601,225.073 174.869 C 224.483 174.137,224.002 173.687,224.004 173.869 M229.599 180.799 C 230.519 181.898,231.481 182.926,231.736 183.083 C 231.991 183.239,231.323 182.340,230.251 181.084 C 229.180 179.828,228.218 178.800,228.114 178.800 C 228.010 178.800,228.679 179.699,229.599 180.799 M84.920 181.200 C 84.920 182.410,84.995 182.905,85.087 182.300 C 85.178 181.695,85.178 180.705,85.087 180.100 C 84.995 179.495,84.920 179.990,84.920 181.200 M233.599 185.599 C 235.925 188.377,236.466 188.582,234.345 185.881 C 233.385 184.659,232.448 183.646,232.263 183.630 C 232.077 183.613,232.679 184.499,233.599 185.599 M236.400 188.548 C 236.400 189.112,237.882 190.785,238.147 190.520 C 238.541 190.125,238.444 189.526,238.027 189.783 C 237.822 189.910,237.372 189.610,237.027 189.118 C 236.682 188.625,236.400 188.369,236.400 188.548 M84.920 200.000 C 84.920 201.210,84.995 201.705,85.087 201.100 C 85.178 200.495,85.178 199.505,85.087 198.900 C 84.995 198.295,84.920 198.790,84.920 200.000 M84.920 206.400 C 84.920 207.610,84.995 208.105,85.087 207.500 C 85.178 206.895,85.178 205.905,85.087 205.300 C 84.995 204.695,84.920 205.190,84.920 206.400 M161.600 212.800 C 161.600 213.020,161.757 213.155,161.948 213.100 C 162.140 213.045,163.058 213.810,163.988 214.800 L 165.679 216.600 164.002 214.500 C 162.403 212.497,161.600 211.929,161.600 212.800 M167.394 218.900 C 168.441 220.165,169.387 221.200,169.498 221.200 C 169.784 221.200,168.845 220.053,167.045 218.200 C 165.791 216.910,165.858 217.045,167.394 218.900 M171.375 223.732 C 171.991 224.539,172.576 225.200,172.675 225.200 C 172.953 225.200,171.221 222.860,170.709 222.544 C 170.459 222.389,170.759 222.924,171.375 223.732 M84.924 225.000 C 84.926 226.320,85.001 226.812,85.090 226.093 C 85.179 225.374,85.177 224.294,85.086 223.693 C 84.995 223.092,84.922 223.680,84.924 225.000 M174.452 227.500 C 175.003 228.105,175.937 229.199,176.527 229.931 C 177.117 230.663,177.600 231.106,177.600 230.916 C 177.600 230.726,176.885 229.768,176.011 228.786 C 175.138 227.803,174.418 226.865,174.411 226.700 C 174.405 226.535,174.186 226.400,173.925 226.400 C 173.664 226.400,173.901 226.895,174.452 227.500 M84.920 231.200 C 84.920 232.410,84.995 232.905,85.087 232.300 C 85.178 231.695,85.178 230.705,85.087 230.100 C 84.995 229.495,84.920 229.990,84.920 231.200 M179.681 233.778 C 180.626 234.975,181.549 235.965,181.731 235.978 C 181.913 235.990,181.216 235.010,180.182 233.800 C 177.765 230.971,177.455 230.957,179.681 233.778 M84.920 237.600 C 84.920 238.810,84.995 239.305,85.087 238.700 C 85.178 238.095,85.178 237.105,85.087 236.500 C 84.995 235.895,84.920 236.390,84.920 237.600 M183.355 238.119 C 184.203 239.153,184.980 240.000,185.082 240.000 C 185.355 240.000,182.821 236.860,182.277 236.524 C 182.022 236.366,182.507 237.084,183.355 238.119 M84.920 243.600 C 84.920 244.810,84.995 245.305,85.087 244.700 C 85.178 244.095,85.178 243.105,85.087 242.500 C 84.995 241.895,84.920 242.390,84.920 243.600 M190.597 246.700 C 192.304 248.735,193.785 250.400,193.888 250.400 C 194.154 250.400,190.899 246.496,189.052 244.600 C 188.194 243.720,188.889 244.665,190.597 246.700 M84.920 250.000 C 84.920 251.210,84.995 251.705,85.087 251.100 C 85.178 250.495,85.178 249.505,85.087 248.900 C 84.995 248.295,84.920 248.790,84.920 250.000 M194.404 251.069 C 194.407 251.251,195.262 252.311,196.304 253.424 C 197.347 254.538,197.828 254.988,197.373 254.424 C 196.918 253.861,196.063 252.801,195.473 252.069 C 194.883 251.337,194.402 250.887,194.404 251.069 M84.920 256.400 C 84.920 257.610,84.995 258.105,85.087 257.500 C 85.178 256.895,85.178 255.905,85.087 255.300 C 84.995 254.695,84.920 255.190,84.920 256.400 M199.991 257.988 C 200.457 258.641,201.042 259.302,201.291 259.456 C 201.541 259.611,201.241 259.076,200.625 258.268 C 199.288 256.515,198.784 256.292,199.991 257.988 M84.920 262.400 C 84.920 263.610,84.995 264.105,85.087 263.500 C 85.178 262.895,85.178 261.905,85.087 261.300 C 84.995 260.695,84.920 261.190,84.920 262.400 M205.029 264.038 C 205.673 264.829,206.281 265.408,206.379 265.325 C 206.478 265.242,205.951 264.595,205.209 263.887 L 203.858 262.600 205.029 264.038 M84.920 268.800 C 84.920 270.010,84.995 270.505,85.087 269.900 C 85.178 269.295,85.178 268.305,85.087 267.700 C 84.995 267.095,84.920 267.590,84.920 268.800 M208.000 267.725 C 208.000 267.794,208.585 268.379,209.300 269.025 L 210.600 270.200 209.425 268.900 C 208.330 267.688,208.000 267.416,208.000 267.725 M213.061 273.771 C 213.687 274.525,214.353 275.155,214.539 275.171 C 214.726 275.187,214.366 274.583,213.739 273.829 C 213.113 273.075,212.447 272.445,212.261 272.429 C 212.074 272.413,212.434 273.017,213.061 273.771 M84.924 275.000 C 84.926 276.320,85.001 276.812,85.090 276.093 C 85.179 275.374,85.177 274.294,85.086 273.693 C 84.995 273.092,84.922 273.680,84.924 275.000 M216.400 277.725 C 216.400 277.794,216.985 278.379,217.700 279.025 L 219.000 280.200 217.825 278.900 C 216.730 277.688,216.400 277.416,216.400 277.725 M84.920 281.200 C 84.920 282.410,84.995 282.905,85.087 282.300 C 85.178 281.695,85.178 280.705,85.087 280.100 C 84.995 279.495,84.920 279.990,84.920 281.200 M222.400 284.625 C 222.400 285.070,230.586 294.758,230.981 294.779 C 231.191 294.791,230.727 294.125,229.951 293.300 C 229.174 292.475,227.158 290.129,225.470 288.086 C 223.781 286.044,222.400 284.486,222.400 284.625 M84.920 287.600 C 84.920 288.810,84.995 289.305,85.087 288.700 C 85.178 288.095,85.178 287.105,85.087 286.500 C 84.995 285.895,84.920 286.390,84.920 287.600 M84.920 293.600 C 84.920 294.810,84.995 295.305,85.087 294.700 C 85.178 294.095,85.178 293.105,85.087 292.500 C 84.995 291.895,84.920 292.390,84.920 293.600 M234.549 299.316 C 235.620 300.572,236.582 301.600,236.686 301.600 C 236.954 301.600,233.623 297.661,233.064 297.317 C 232.809 297.161,233.477 298.060,234.549 299.316 M84.920 300.000 C 84.920 301.210,84.995 301.705,85.087 301.100 C 85.178 300.495,85.178 299.505,85.087 298.900 C 84.995 298.295,84.920 298.790,84.920 300.000 M238.208 303.700 C 239.067 304.745,239.834 305.600,239.912 305.600 C 240.198 305.600,238.461 303.378,237.566 302.600 C 237.060 302.160,237.349 302.655,238.208 303.700 M84.920 306.400 C 84.920 307.610,84.995 308.105,85.087 307.500 C 85.178 306.895,85.178 305.905,85.087 305.300 C 84.995 304.695,84.920 305.190,84.920 306.400 M241.827 307.976 C 242.282 308.539,243.137 309.599,243.727 310.331 C 244.317 311.063,244.798 311.513,244.796 311.331 C 244.793 311.149,243.938 310.089,242.896 308.976 C 241.853 307.862,241.372 307.412,241.827 307.976 M247.634 315.047 C 248.165 315.733,248.680 316.223,248.779 316.135 C 248.877 316.047,248.443 315.486,247.813 314.888 L 246.669 313.800 247.634 315.047 " stroke="none" fill="#8c847c" fill-rule="evenodd"></path><path id="path6" d="M238.194 137.600 C 238.194 166.310,238.242 178.055,238.300 163.700 C 238.358 149.345,238.358 125.855,238.300 111.500 C 238.242 97.145,238.194 108.890,238.194 137.600 M161.794 265.600 C 161.794 294.310,161.842 306.055,161.900 291.700 C 161.958 277.345,161.958 253.855,161.900 239.500 C 161.842 225.145,161.794 236.890,161.794 265.600 M85.142 318.102 C 85.308 318.268,101.454 318.358,121.022 318.302 L 156.600 318.200 120.720 318.000 C 100.986 317.890,84.976 317.936,85.142 318.102 M282.600 318.000 L 250.200 318.207 282.476 318.304 C 303.667 318.367,314.838 318.263,315.000 318.000 C 315.136 317.780,315.192 317.643,315.124 317.696 C 315.056 317.749,300.420 317.886,282.600 318.000 M157.505 318.283 C 158.002 318.379,158.722 318.375,159.105 318.275 C 159.487 318.175,159.080 318.096,158.200 318.101 C 157.320 318.105,157.007 318.187,157.505 318.283 " stroke="none" fill="#747c74" fill-rule="evenodd"></path><path id="path7" d="M87.100 84.282 C 87.595 84.378,88.405 84.378,88.900 84.282 C 89.395 84.187,88.990 84.109,88.000 84.109 C 87.010 84.109,86.605 84.187,87.100 84.282 M92.905 84.287 C 93.514 84.379,94.414 84.377,94.905 84.282 C 95.397 84.187,94.900 84.111,93.800 84.114 C 92.700 84.117,92.297 84.195,92.905 84.287 M98.900 84.287 C 99.505 84.378,100.495 84.378,101.100 84.287 C 101.705 84.195,101.210 84.120,100.000 84.120 C 98.790 84.120,98.295 84.195,98.900 84.287 M105.305 84.287 C 105.914 84.379,106.814 84.377,107.305 84.282 C 107.797 84.187,107.300 84.111,106.200 84.114 C 105.100 84.117,104.697 84.195,105.305 84.287 M111.300 84.287 C 111.905 84.378,112.895 84.378,113.500 84.287 C 114.105 84.195,113.610 84.120,112.400 84.120 C 111.190 84.120,110.695 84.195,111.300 84.287 M117.700 84.287 C 118.305 84.378,119.295 84.378,119.900 84.287 C 120.505 84.195,120.010 84.120,118.800 84.120 C 117.590 84.120,117.095 84.195,117.700 84.287 M124.105 84.287 C 124.714 84.379,125.614 84.377,126.105 84.282 C 126.597 84.187,126.100 84.111,125.000 84.114 C 123.900 84.117,123.497 84.195,124.105 84.287 M130.100 84.287 C 130.705 84.378,131.695 84.378,132.300 84.287 C 132.905 84.195,132.410 84.120,131.200 84.120 C 129.990 84.120,129.495 84.195,130.100 84.287 M136.500 84.287 C 137.105 84.378,138.095 84.378,138.700 84.287 C 139.305 84.195,138.810 84.120,137.600 84.120 C 136.390 84.120,135.895 84.195,136.500 84.287 M142.500 84.276 C 142.885 84.376,143.515 84.376,143.900 84.276 C 144.285 84.175,143.970 84.093,143.200 84.093 C 142.430 84.093,142.115 84.175,142.500 84.276 M238.596 84.436 C 238.158 84.608,239.497 84.668,241.572 84.569 C 243.647 84.470,245.422 84.311,245.518 84.215 C 245.827 83.907,239.420 84.111,238.596 84.436 M248.900 84.287 C 249.505 84.378,250.495 84.378,251.100 84.287 C 251.705 84.195,251.210 84.120,250.000 84.120 C 248.790 84.120,248.295 84.195,248.900 84.287 M255.305 84.287 C 255.914 84.379,256.814 84.377,257.305 84.282 C 257.797 84.187,257.300 84.111,256.200 84.114 C 255.100 84.117,254.697 84.195,255.305 84.287 M261.300 84.287 C 261.905 84.378,262.895 84.378,263.500 84.287 C 264.105 84.195,263.610 84.120,262.400 84.120 C 261.190 84.120,260.695 84.195,261.300 84.287 M267.700 84.287 C 268.305 84.378,269.295 84.378,269.900 84.287 C 270.505 84.195,270.010 84.120,268.800 84.120 C 267.590 84.120,267.095 84.195,267.700 84.287 M274.105 84.287 C 274.714 84.379,275.614 84.377,276.105 84.282 C 276.597 84.187,276.100 84.111,275.000 84.114 C 273.900 84.117,273.497 84.195,274.105 84.287 M280.100 84.287 C 280.705 84.378,281.695 84.378,282.300 84.287 C 282.905 84.195,282.410 84.120,281.200 84.120 C 279.990 84.120,279.495 84.195,280.100 84.287 M286.500 84.287 C 287.105 84.378,288.095 84.378,288.700 84.287 C 289.305 84.195,288.810 84.120,287.600 84.120 C 286.390 84.120,285.895 84.195,286.500 84.287 M292.905 84.287 C 293.514 84.379,294.414 84.377,294.905 84.282 C 295.397 84.187,294.900 84.111,293.800 84.114 C 292.700 84.117,292.297 84.195,292.905 84.287 M298.900 84.287 C 299.505 84.378,300.495 84.378,301.100 84.287 C 301.705 84.195,301.210 84.120,300.000 84.120 C 298.790 84.120,298.295 84.195,298.900 84.287 M305.305 84.287 C 305.914 84.379,306.814 84.377,307.305 84.282 C 307.797 84.187,307.300 84.111,306.200 84.114 C 305.100 84.117,304.697 84.195,305.305 84.287 M311.100 84.282 C 311.595 84.378,312.405 84.378,312.900 84.282 C 313.395 84.187,312.990 84.109,312.000 84.109 C 311.010 84.109,310.605 84.187,311.100 84.282 M149.200 84.684 C 149.530 84.805,150.160 85.196,150.600 85.552 C 151.393 86.194,151.394 86.192,150.638 85.300 C 150.219 84.805,149.589 84.414,149.238 84.432 C 148.696 84.458,148.691 84.497,149.200 84.684 M315.451 87.300 C 315.318 87.795,315.208 139.500,315.206 202.200 C 315.205 264.900,315.203 316.695,315.202 317.300 L 315.200 318.400 282.731 318.400 C 252.393 318.400,250.208 318.354,249.431 317.700 C 248.601 317.001,248.601 317.001,249.362 317.900 L 250.124 318.800 282.675 318.800 C 308.922 318.800,315.264 318.700,315.424 318.283 C 315.588 317.853,315.911 86.400,315.747 86.400 C 315.717 86.400,315.584 86.805,315.451 87.300 M153.238 88.579 C 153.588 89.031,154.173 89.845,154.538 90.389 C 154.902 90.933,155.200 91.155,155.200 90.883 C 155.200 90.611,154.615 89.797,153.900 89.074 C 153.185 88.351,152.887 88.128,153.238 88.579 M157.768 94.100 C 158.609 95.145,159.377 96.000,159.475 96.000 C 159.792 96.000,158.117 93.826,157.163 93.000 C 156.655 92.560,156.928 93.055,157.768 94.100 M162.354 99.536 C 162.799 100.160,163.484 100.925,163.877 101.236 C 164.270 101.546,164.098 101.201,163.496 100.469 C 162.893 99.737,162.400 98.972,162.400 98.769 C 162.400 98.566,162.208 98.400,161.973 98.400 C 161.738 98.400,161.909 98.911,162.354 99.536 M170.400 109.325 C 170.400 109.394,170.985 109.979,171.700 110.625 L 173.000 111.800 171.825 110.500 C 170.730 109.288,170.400 109.016,170.400 109.325 M174.364 113.933 C 174.580 114.336,175.074 114.921,175.463 115.233 C 175.964 115.635,175.904 115.422,175.257 114.500 C 174.269 113.091,173.731 112.749,174.364 113.933 M176.800 116.925 C 176.800 116.994,177.385 117.579,178.100 118.225 L 179.400 119.400 178.225 118.100 C 177.130 116.888,176.800 116.616,176.800 116.925 M182.093 123.200 C 182.368 123.640,182.731 124.000,182.900 124.000 C 183.069 124.000,182.982 123.640,182.707 123.200 C 182.432 122.760,182.069 122.400,181.900 122.400 C 181.731 122.400,181.818 122.760,182.093 123.200 M186.608 128.500 C 187.467 129.545,188.234 130.400,188.312 130.400 C 188.598 130.400,186.861 128.178,185.966 127.400 C 185.460 126.960,185.749 127.455,186.608 128.500 M190.025 132.200 C 190.025 132.420,190.290 132.949,190.613 133.376 C 190.936 133.804,191.200 133.973,191.200 133.753 C 191.200 133.533,190.936 133.004,190.613 132.576 C 190.290 132.149,190.025 131.980,190.025 132.200 M194.001 137.400 C 194.551 138.060,195.045 138.675,195.100 138.767 C 195.155 138.858,195.288 138.845,195.396 138.738 C 195.504 138.630,195.009 138.015,194.297 137.371 L 193.003 136.200 194.001 137.400 M198.000 142.000 C 198.440 142.440,198.800 142.980,198.800 143.200 C 198.800 143.420,198.992 143.600,199.227 143.600 C 199.462 143.600,199.270 143.060,198.800 142.400 C 198.330 141.740,197.778 141.200,197.573 141.200 C 197.368 141.200,197.560 141.560,198.000 142.000 M201.600 146.538 C 201.600 146.600,202.169 147.179,202.865 147.825 C 204.128 148.998,204.129 148.998,203.365 147.917 C 202.728 147.015,201.600 146.134,201.600 146.538 M214.364 161.533 C 214.580 161.936,215.074 162.521,215.463 162.833 C 215.964 163.235,215.904 163.022,215.257 162.100 C 214.269 160.691,213.731 160.349,214.364 161.533 M218.002 165.622 C 218.001 165.745,218.450 166.455,219.000 167.200 C 219.550 167.945,219.994 168.385,219.986 168.178 C 219.970 167.776,218.005 165.245,218.002 165.622 M226.784 176.475 C 227.233 176.957,227.600 177.497,227.600 177.675 C 227.600 177.854,227.785 178.000,228.012 178.000 C 228.239 178.000,228.025 177.460,227.537 176.800 C 227.049 176.140,226.496 175.600,226.309 175.600 C 226.122 175.600,226.336 175.994,226.784 176.475 M230.741 181.100 C 231.471 182.035,232.154 182.800,232.261 182.800 C 232.573 182.800,230.903 180.581,230.126 179.964 C 229.735 179.654,230.012 180.165,230.741 181.100 M234.653 185.800 C 235.489 186.900,236.223 187.875,236.286 187.967 C 236.349 188.058,236.400 187.968,236.399 187.767 C 236.398 187.565,235.664 186.590,234.766 185.600 L 233.135 183.800 234.653 185.800 M84.370 187.400 C 84.205 188.500,84.341 193.674,84.540 193.873 C 84.683 194.016,84.800 192.573,84.800 190.667 C 84.800 187.930,84.562 186.121,84.370 187.400 M84.200 215.600 C 84.200 217.360,84.335 218.800,84.500 218.800 C 84.665 218.800,84.800 217.360,84.800 215.600 C 84.800 213.840,84.665 212.400,84.500 212.400 C 84.335 212.400,84.200 213.840,84.200 215.600 M166.681 219.383 C 167.077 219.924,167.670 220.475,167.999 220.609 C 168.329 220.742,168.070 220.300,167.424 219.626 C 166.008 218.147,165.705 218.048,166.681 219.383 M181.634 237.047 C 182.165 237.733,182.680 238.223,182.779 238.135 C 182.877 238.047,182.443 237.486,181.813 236.888 L 180.669 235.800 181.634 237.047 M185.140 241.033 C 185.537 241.827,186.800 243.104,186.800 242.711 C 186.800 242.608,186.333 242.001,185.762 241.362 C 185.069 240.587,184.862 240.477,185.140 241.033 M188.975 245.732 C 189.591 246.539,190.176 247.200,190.275 247.200 C 190.553 247.200,188.821 244.860,188.309 244.544 C 188.059 244.389,188.359 244.924,188.975 245.732 M196.816 255.200 C 199.004 257.977,199.551 258.529,198.601 257.000 C 198.191 256.340,197.231 255.170,196.469 254.400 C 195.300 253.220,195.354 253.346,196.816 255.200 M201.202 260.022 C 201.201 260.145,201.650 260.855,202.200 261.600 C 202.750 262.345,203.194 262.785,203.186 262.578 C 203.170 262.176,201.205 259.645,201.202 260.022 M205.806 266.112 C 206.192 266.724,206.609 267.124,206.732 267.001 C 206.855 266.878,206.539 266.378,206.030 265.889 L 205.104 265.000 205.806 266.112 M213.554 275.136 C 213.999 275.760,214.679 276.525,215.065 276.836 C 215.452 277.146,215.160 276.635,214.417 275.700 C 212.891 273.780,212.325 273.410,213.554 275.136 M217.600 280.125 C 217.600 280.194,218.185 280.779,218.900 281.425 L 220.200 282.600 219.025 281.300 C 217.930 280.088,217.600 279.816,217.600 280.125 M225.164 289.133 C 225.380 289.536,225.871 290.121,226.255 290.433 C 226.687 290.784,226.590 290.504,226.001 289.700 C 224.951 288.265,224.557 287.998,225.164 289.133 M229.355 294.119 C 230.203 295.153,230.980 296.000,231.082 296.000 C 231.355 296.000,228.821 292.860,228.277 292.524 C 228.022 292.366,228.507 293.084,229.355 294.119 M233.099 298.600 C 233.554 299.260,234.523 300.340,235.252 301.000 C 236.230 301.887,236.119 301.678,234.826 300.200 C 232.466 297.502,232.120 297.182,233.099 298.600 M237.200 303.600 C 237.670 304.260,238.224 304.800,238.430 304.800 C 238.637 304.800,238.325 304.260,237.737 303.600 C 237.149 302.940,236.595 302.400,236.507 302.400 C 236.418 302.400,236.730 302.940,237.200 303.600 M84.202 313.984 C 83.923 316.014,84.205 318.232,84.788 318.593 C 84.968 318.704,84.977 318.187,84.810 317.444 C 84.643 316.702,84.578 315.173,84.667 314.047 C 84.873 311.430,84.559 311.387,84.202 313.984 M244.800 312.289 C 244.800 312.521,245.171 313.136,245.624 313.656 L 246.447 314.600 245.745 313.400 C 244.820 311.821,244.800 311.797,244.800 312.289 M104.330 318.700 C 114.522 318.759,131.082 318.759,141.130 318.700 C 151.179 318.640,142.840 318.592,122.600 318.592 C 102.360 318.592,94.139 318.640,104.330 318.700 " stroke="none" fill="#3a403e" fill-rule="evenodd"></path><path id="path8" d="M101.300 84.700 C 110.045 84.760,124.355 84.760,133.100 84.700 C 141.845 84.640,134.690 84.591,117.200 84.591 C 99.710 84.591,92.555 84.640,101.300 84.700 M260.700 84.700 C 270.655 84.759,286.945 84.759,296.900 84.700 C 306.855 84.640,298.710 84.592,278.800 84.592 C 258.890 84.592,250.745 84.640,260.700 84.700 M84.520 87.600 C 84.520 88.810,84.595 89.305,84.687 88.700 C 84.778 88.095,84.778 87.105,84.687 86.500 C 84.595 85.895,84.520 86.390,84.520 87.600 M84.524 93.800 C 84.526 95.120,84.601 95.612,84.690 94.893 C 84.779 94.174,84.777 93.094,84.686 92.493 C 84.595 91.892,84.522 92.480,84.524 93.800 M84.520 100.000 C 84.520 101.210,84.595 101.705,84.687 101.100 C 84.778 100.495,84.778 99.505,84.687 98.900 C 84.595 98.295,84.520 98.790,84.520 100.000 M84.524 106.200 C 84.526 107.520,84.601 108.012,84.690 107.293 C 84.779 106.574,84.777 105.494,84.686 104.893 C 84.595 104.292,84.522 104.880,84.524 106.200 M84.524 112.600 C 84.526 113.920,84.601 114.412,84.690 113.693 C 84.779 112.974,84.777 111.894,84.686 111.293 C 84.595 110.692,84.522 111.280,84.524 112.600 M84.524 118.600 C 84.526 119.920,84.601 120.412,84.690 119.693 C 84.779 118.974,84.777 117.894,84.686 117.293 C 84.595 116.692,84.522 117.280,84.524 118.600 M84.524 125.000 C 84.526 126.320,84.601 126.812,84.690 126.093 C 84.779 125.374,84.777 124.294,84.686 123.693 C 84.595 123.092,84.522 123.680,84.524 125.000 M84.524 131.400 C 84.526 132.720,84.601 133.212,84.690 132.493 C 84.779 131.774,84.777 130.694,84.686 130.093 C 84.595 129.492,84.522 130.080,84.524 131.400 M84.524 137.400 C 84.526 138.720,84.601 139.212,84.690 138.493 C 84.779 137.774,84.777 136.694,84.686 136.093 C 84.595 135.492,84.522 136.080,84.524 137.400 M84.524 143.800 C 84.526 145.120,84.601 145.612,84.690 144.893 C 84.779 144.174,84.777 143.094,84.686 142.493 C 84.595 141.892,84.522 142.480,84.524 143.800 M84.520 150.000 C 84.520 151.210,84.595 151.705,84.687 151.100 C 84.778 150.495,84.778 149.505,84.687 148.900 C 84.595 148.295,84.520 148.790,84.520 150.000 M84.524 156.200 C 84.526 157.520,84.601 158.012,84.690 157.293 C 84.779 156.574,84.777 155.494,84.686 154.893 C 84.595 154.292,84.522 154.880,84.524 156.200 M84.524 162.600 C 84.526 163.920,84.601 164.412,84.690 163.693 C 84.779 162.974,84.777 161.894,84.686 161.293 C 84.595 160.692,84.522 161.280,84.524 162.600 M84.524 168.600 C 84.526 169.920,84.601 170.412,84.690 169.693 C 84.779 168.974,84.777 167.894,84.686 167.293 C 84.595 166.692,84.522 167.280,84.524 168.600 M84.524 175.000 C 84.526 176.320,84.601 176.812,84.690 176.093 C 84.779 175.374,84.777 174.294,84.686 173.693 C 84.595 173.092,84.522 173.680,84.524 175.000 M84.524 181.400 C 84.526 182.720,84.601 183.212,84.690 182.493 C 84.779 181.774,84.777 180.694,84.686 180.093 C 84.595 179.492,84.522 180.080,84.524 181.400 M84.520 200.000 C 84.520 201.210,84.595 201.705,84.687 201.100 C 84.778 200.495,84.778 199.505,84.687 198.900 C 84.595 198.295,84.520 198.790,84.520 200.000 M84.524 206.200 C 84.526 207.520,84.601 208.012,84.690 207.293 C 84.779 206.574,84.777 205.494,84.686 204.893 C 84.595 204.292,84.522 204.880,84.524 206.200 M84.524 225.000 C 84.526 226.320,84.601 226.812,84.690 226.093 C 84.779 225.374,84.777 224.294,84.686 223.693 C 84.595 223.092,84.522 223.680,84.524 225.000 M84.524 231.400 C 84.526 232.720,84.601 233.212,84.690 232.493 C 84.779 231.774,84.777 230.694,84.686 230.093 C 84.595 229.492,84.522 230.080,84.524 231.400 M84.524 237.400 C 84.526 238.720,84.601 239.212,84.690 238.493 C 84.779 237.774,84.777 236.694,84.686 236.093 C 84.595 235.492,84.522 236.080,84.524 237.400 M84.524 243.800 C 84.526 245.120,84.601 245.612,84.690 244.893 C 84.779 244.174,84.777 243.094,84.686 242.493 C 84.595 241.892,84.522 242.480,84.524 243.800 M84.520 250.000 C 84.520 251.210,84.595 251.705,84.687 251.100 C 84.778 250.495,84.778 249.505,84.687 248.900 C 84.595 248.295,84.520 248.790,84.520 250.000 M84.524 256.200 C 84.526 257.520,84.601 258.012,84.690 257.293 C 84.779 256.574,84.777 255.494,84.686 254.893 C 84.595 254.292,84.522 254.880,84.524 256.200 M84.524 262.600 C 84.526 263.920,84.601 264.412,84.690 263.693 C 84.779 262.974,84.777 261.894,84.686 261.293 C 84.595 260.692,84.522 261.280,84.524 262.600 M84.524 268.600 C 84.526 269.920,84.601 270.412,84.690 269.693 C 84.779 268.974,84.777 267.894,84.686 267.293 C 84.595 266.692,84.522 267.280,84.524 268.600 M84.524 275.000 C 84.526 276.320,84.601 276.812,84.690 276.093 C 84.779 275.374,84.777 274.294,84.686 273.693 C 84.595 273.092,84.522 273.680,84.524 275.000 M84.524 281.400 C 84.526 282.720,84.601 283.212,84.690 282.493 C 84.779 281.774,84.777 280.694,84.686 280.093 C 84.595 279.492,84.522 280.080,84.524 281.400 M84.524 287.400 C 84.526 288.720,84.601 289.212,84.690 288.493 C 84.779 287.774,84.777 286.694,84.686 286.093 C 84.595 285.492,84.522 286.080,84.524 287.400 M84.524 293.800 C 84.526 295.120,84.601 295.612,84.690 294.893 C 84.779 294.174,84.777 293.094,84.686 292.493 C 84.595 291.892,84.522 292.480,84.524 293.800 M84.520 300.000 C 84.520 301.210,84.595 301.705,84.687 301.100 C 84.778 300.495,84.778 299.505,84.687 298.900 C 84.595 298.295,84.520 298.790,84.520 300.000 M84.524 306.200 C 84.526 307.520,84.601 308.012,84.690 307.293 C 84.779 306.574,84.777 305.494,84.686 304.893 C 84.595 304.292,84.522 304.880,84.524 306.200 " stroke="none" fill="#4c544c" fill-rule="evenodd"></path></g></svg>