<?xml version="1.0" standalone="no"?>
<!DOCTYPE svg PUBLIC "-//W3C//DTD SVG 20010904//EN"
 "http://www.w3.org/TR/2001/REC-SVG-20010904/DTD/svg10.dtd">
<svg version="1.0" xmlns="http://www.w3.org/2000/svg"
 width="300.000000pt" height="306.000000pt" viewBox="0 0 300.000000 306.000000"
 preserveAspectRatio="xMidYMid meet">
<metadata>
Created by potrace 1.10, written by Peter Selinger 2001-2011
</metadata>
<g transform="translate(0.000000,306.000000) scale(0.100000,-0.100000)"
fill="#000000" stroke="none">
<path d="M503 2680 c-12 -5 -26 -18 -32 -29 -7 -13 -11 -174 -11 -481 l0 -461
23 -23 c22 -22 31 -23 161 -25 142 -1 186 8 200 44 3 9 6 83 6 163 l0 147 43
-45 c51 -55 80 -89 175 -202 87 -105 103 -111 255 -106 95 3 109 5 129 26 l23
23 -2 467 -2 467 -26 23 c-24 21 -35 22 -165 22 -130 0 -141 -1 -165 -22 -25
-23 -26 -26 -28 -168 -1 -108 -5 -145 -14 -145 -7 0 -69 67 -138 149 -69 82
-137 158 -152 168 -23 15 -48 18 -143 17 -63 0 -125 -4 -137 -9z m441 -245
c99 -118 180 -215 180 -215 1 0 0 97 -2 215 l-3 215 160 0 161 0 0 -475 0
-475 -134 0 -135 0 -178 215 -178 214 -3 -214 -2 -215 -155 0 -155 0 0 475 0
475 133 0 132 0 179 -215z"/>
<path d="M1594 2678 c-12 -5 -26 -20 -32 -33 -15 -32 -16 -888 -1 -932 7 -23
19 -35 42 -42 21 -7 166 -10 403 -8 350 2 373 3 393 21 19 17 21 30 21 136 0
167 12 160 -253 160 -181 0 -208 2 -214 16 -3 9 0 20 8 25 8 5 87 9 175 9 209
0 208 -1 211 132 2 110 -8 151 -43 167 -15 7 -86 11 -184 11 -136 0 -160 2
-160 15 0 13 28 15 194 15 189 0 196 1 222 23 26 22 26 25 25 137 -2 173 33
160 -419 159 -231 0 -375 -4 -388 -11z m776 -148 l0 -120 -230 0 -230 0 0 -55
0 -55 200 0 200 0 0 -117 0 -118 -200 3 -200 3 0 -66 0 -66 236 1 235 1 2
-120 2 -121 -397 0 -398 0 0 475 0 475 390 0 390 0 0 -120z"/>
<path d="M1950 1459 c-247 -28 -442 -200 -481 -427 -13 -74 -7 -219 12 -272
17 -48 74 -144 111 -185 38 -43 148 -116 211 -139 127 -47 270 -53 404 -16
101 28 174 70 249 145 102 100 147 216 146 370 -2 335 -288 565 -652 524z
m178 -39 c187 -31 345 -148 403 -300 116 -304 -52 -609 -373 -674 -142 -29
-268 -13 -396 50 -187 92 -294 298 -263 506 43 284 319 468 629 418z"/>
<path d="M1966 1155 c-61 -21 -88 -46 -118 -105 -53 -103 -28 -251 54 -313
106 -81 265 -43 319 78 27 58 26 175 -2 232 -26 54 -79 98 -135 112 -54 14
-70 13 -118 -4z m157 -54 c79 -48 105 -182 55 -279 -42 -82 -138 -113 -221
-73 -107 52 -135 248 -46 327 64 58 144 67 212 25z"/>
<path d="M437 1439 c-83 -9 -85 -33 -18 -190 27 -62 86 -202 131 -309 45 -107
90 -213 99 -235 10 -22 37 -86 61 -142 63 -150 58 -147 246 -146 151 1 157 1
179 24 13 13 55 101 95 194 39 94 77 184 84 200 12 25 188 442 217 513 14 35
11 57 -11 77 -17 16 -39 18 -172 17 -149 -1 -153 -1 -174 -25 -12 -14 -56
-107 -98 -208 -97 -229 -99 -234 -111 -234 -5 0 -27 43 -48 95 -21 52 -61 149
-88 214 -26 66 -55 127 -64 135 -12 12 -46 17 -148 21 -73 3 -154 3 -180 -1z
m310 -46 c3 -10 54 -136 113 -281 l106 -262 116 277 116 278 160 3 160 2 -59
-137 c-32 -76 -123 -291 -202 -478 l-144 -340 -159 -2 -159 -3 -173 413 c-95
226 -186 442 -202 480 l-29 67 175 0 c157 0 175 -2 181 -17z"/>
</g>
</svg>
